<svg width="16" height="20" viewBox="0 0 16 20" fill="none" xmlns="http://www.w3.org/2000/svg">
<path fill-rule="evenodd" clip-rule="evenodd" d="M4 4C4 1.79086 5.79086 0 8 0C10.2091 0 12 1.79086 12 4H13C14.6569 4 16 5.34315 16 7V17C16 18.6569 14.6569 20 13 20H3C1.34315 20 0 18.6569 0 17V7C0 5.34315 1.34315 4 3 4H4ZM6 4C6 2.89543 6.89543 2 8 2C9.10457 2 10 2.89543 10 4H6ZM4 6V6.5C4 7.05228 4.44772 7.5 5 7.5C5.55228 7.5 6 7.05228 6 6.5V6H10V6.5C10 7.05228 10.4477 7.5 11 7.5C11.5523 7.5 12 7.05228 12 6.5V6H13C13.5523 6 14 6.44772 14 7V17C14 17.5523 13.5523 18 13 18H3C2.44772 18 2 17.5523 2 17V7C2 6.44772 2.44772 6 3 6H4Z" fill="black"/>
</svg>
